<?xml version="1.0" standalone="no"?>
<!DOCTYPE svg PUBLIC "-//W3C//DTD SVG 20010904//EN"
 "http://www.w3.org/TR/2001/REC-SVG-20010904/DTD/svg10.dtd">
<svg version="1.0" xmlns="http://www.w3.org/2000/svg"
 width="937.000000pt" height="201.000000pt" viewBox="0 0 937.000000 201.000000"
 preserveAspectRatio="xMidYMid meet">

<g transform="translate(0.000000,201.000000) scale(0.100000,-0.100000)"
fill="#000000" stroke="none">
<path d="M863 2000 c-400 -57 -721 -347 -824 -745 -34 -130 -34 -370 0 -500
94 -364 362 -632 726 -726 130 -33 369 -34 500 0 296 75 531 269 659 542 71
151 90 244 90 434 0 176 -16 265 -74 406 -114 275 -376 497 -675 570 -92 22
-307 33 -402 19z m509 -140 c156 -48 311 -202 369 -364 89 -254 -1 -550 -207
-682 -76 -49 -150 -69 -339 -95 -93 -12 -172 -23 -174 -25 -2 -2 2 -40 8 -86
35 -263 50 -416 43 -442 -11 -40 -46 -64 -110 -76 -92 -17 -118 6 -145 125
-126 547 -177 777 -177 790 0 26 -23 27 -108 6 -136 -35 -182 -27 -229 43 -26
37 -28 49 -28 131 0 143 28 172 179 182 59 4 96 10 96 17 0 6 -9 47 -19 91
-40 168 -39 223 7 253 14 9 158 47 321 83 334 75 406 82 513 49z"/>
<path d="M1026 1509 c-66 -11 -121 -21 -123 -23 -2 -1 0 -24 3 -49 6 -41 9
-46 28 -42 11 2 69 6 128 10 88 5 114 3 139 -10 62 -32 73 -125 22 -185 -24
-29 -38 -34 -195 -75 -71 -18 -77 -25 -62 -80 l5 -21 162 24 c173 25 195 33
234 91 45 66 39 210 -13 298 -51 87 -105 98 -328 62z"/>
<path d="M5184 1365 c-119 -26 -202 -81 -249 -167 -28 -49 -30 -60 -30 -158 0
-96 3 -110 29 -164 20 -41 53 -82 105 -130 162 -153 169 -160 176 -199 17 -89
-32 -128 -140 -110 -33 6 -61 9 -63 8 -2 -2 7 -49 20 -105 27 -121 25 -120
167 -120 131 0 185 17 255 80 61 56 86 112 86 191 0 60 -18 109 -74 205 -56
95 -61 141 -20 179 29 27 37 29 102 25 l42 -2 -1 74 c-1 171 -17 370 -29 378
-45 28 -274 37 -376 15z"/>
<path d="M8162 1360 c-29 -4 -54 -10 -56 -11 -1 -2 4 -112 11 -244 7 -132 19
-382 25 -555 l13 -315 200 0 200 0 5 110 5 110 75 7 c184 16 324 121 380 282
39 115 33 258 -15 364 -47 103 -171 195 -320 237 -68 20 -428 30 -523 15z
m528 -475 c39 -20 50 -43 50 -103 0 -76 -45 -121 -132 -135 l-38 -6 0 62 c0
34 3 92 7 130 l6 67 39 0 c21 0 52 -7 68 -15z"/>
<path d="M2160 1338 c0 -7 5 -78 10 -158 5 -80 14 -271 19 -425 6 -154 13
-335 17 -402 l6 -123 324 0 324 0 5 23 c33 144 43 192 41 195 -2 1 -32 -2 -67
-8 -35 -5 -99 -10 -141 -10 l-78 0 0 34 c0 18 3 55 7 81 l6 48 108 -7 108 -6
11 57 c6 32 16 74 21 93 5 19 9 38 9 42 0 4 -59 5 -132 1 l-131 -6 6 33 c4 18
7 50 7 71 l0 39 58 0 c31 0 86 -5 122 -10 35 -5 66 -7 69 -4 6 5 30 323 30
402 l1 52 -380 0 c-297 0 -380 -3 -380 -12z"/>
<path d="M2990 1324 c0 -14 7 -128 15 -253 12 -191 35 -715 35 -812 l0 -29
328 0 327 0 17 88 c10 48 21 98 24 111 7 22 5 23 -27 18 -47 -9 -252 -28 -256
-24 -1 2 6 199 17 438 11 239 20 446 20 462 l0 27 -250 0 -250 0 0 -26z"/>
<path d="M3780 1308 c0 -24 5 -108 10 -188 5 -80 14 -298 20 -485 6 -187 13
-355 16 -373 l5 -32 322 0 322 0 26 111 26 111 -26 -6 c-14 -3 -79 -9 -143
-13 l-118 -6 0 83 0 83 113 -6 113 -7 17 85 c9 46 20 91 23 99 5 14 -11 15
-125 9 l-131 -6 0 34 c0 19 3 51 6 72 l7 37 56 0 c31 0 85 -5 121 -10 35 -5
65 -8 67 -7 2 3 33 412 33 442 0 13 -47 15 -380 15 l-380 0 0 -42z"/>
<path d="M5635 1333 c49 -126 191 -559 254 -778 45 -154 86 -290 91 -302 9
-22 14 -23 134 -23 l125 0 40 128 c22 70 56 181 76 247 21 66 40 124 44 128 5
4 37 -107 72 -248 l64 -256 130 3 129 3 71 240 c39 132 119 383 177 558 l107
318 -127 -3 -126 -3 -9 -45 c-16 -91 -110 -465 -114 -454 -2 6 -23 120 -47
253 -24 133 -46 244 -48 247 -3 2 -104 3 -225 2 l-220 -3 43 -152 43 -153 -25
-87 c-14 -49 -29 -94 -33 -101 -7 -13 -62 180 -113 400 l-23 98 -249 0 c-232
0 -248 -1 -241 -17z"/>
<path d="M7384 1313 c-30 -180 -115 -577 -168 -797 -36 -148 -66 -273 -66
-277 0 -5 47 -9 103 -9 l104 0 20 72 19 72 38 -81 39 -82 41 33 c67 54 135 90
140 74 3 -7 10 -30 16 -50 l12 -38 194 0 c169 0 194 2 194 16 0 8 -24 117 -54
242 -61 254 -133 580 -167 750 l-22 112 -218 0 -218 0 -7 -37z m160 -645 c13
-29 35 -85 49 -124 l26 -72 -42 -10 c-71 -18 -157 -25 -157 -14 0 5 18 61 39
123 48 140 52 149 58 149 2 0 15 -24 27 -52z"/>
</g>
</svg>
